<?xml version="1.0" standalone="no"?>
<!DOCTYPE svg PUBLIC "-//W3C//DTD SVG 20010904//EN"
 "http://www.w3.org/TR/2001/REC-SVG-20010904/DTD/svg10.dtd">
<svg version="1.0" xmlns="http://www.w3.org/2000/svg"
 width="1600.000000pt" height="1600.000000pt" viewBox="0 0 1600.000000 1600.000000"
 preserveAspectRatio="xMidYMid meet">

<g transform="translate(0.000000,1600.000000) scale(0.100000,-0.100000)"
fill="#000000" stroke="none">
<path d="M0 8000 l0 -8000 8000 0 8000 0 0 8000 0 8000 -8000 0 -8000 0 0
-8000z m11305 6152 c373 -83 700 -302 902 -603 l71 -107 83 112 c46 61 130
158 188 216 278 278 577 410 925 410 333 0 614 -111 831 -328 173 -173 257
-383 258 -647 1 -237 -53 -406 -181 -566 -150 -189 -297 -267 -541 -286 -88
-7 -219 16 -285 49 -116 58 -201 154 -238 269 -42 131 -20 357 49 492 82 163
229 292 425 373 49 21 87 42 85 48 -7 21 -96 77 -154 97 -32 12 -109 28 -171
37 -156 22 -313 7 -408 -37 -242 -113 -461 -367 -584 -675 -34 -84 -57 -167
-179 -626 -278 -1048 -428 -1667 -522 -2163 -40 -209 -51 -446 -25 -547 38
-146 98 -236 207 -306 126 -82 235 -114 383 -114 300 0 608 147 900 429 255
248 410 506 531 885 47 149 60 164 145 176 184 27 331 3 346 -55 14 -55 -15
-180 -83 -360 -131 -348 -318 -638 -592 -919 -308 -315 -608 -487 -996 -568
-98 -20 -137 -23 -355 -23 -232 0 -251 2 -350 27 -260 66 -459 176 -636 353
-72 73 -191 225 -235 302 -13 24 -27 43 -30 43 -4 0 -44 -51 -90 -112 -109
-147 -299 -337 -410 -411 -109 -72 -251 -139 -354 -167 -66 -19 -116 -23 -280
-27 -173 -4 -217 -2 -327 17 -256 43 -416 124 -551 278 -103 117 -185 266
-234 427 -25 83 -27 104 -27 255 0 138 4 178 22 244 79 286 309 516 573 572
104 22 301 14 384 -15 175 -63 267 -199 282 -416 15 -227 -62 -402 -255 -587
-80 -76 -177 -133 -287 -169 -58 -19 -61 -25 -24 -48 63 -39 249 -112 322
-127 93 -20 246 -5 349 33 238 88 474 358 591 675 112 304 268 876 557 2039
61 244 117 469 124 499 50 192 90 468 89 620 0 279 -87 437 -296 540 -145 71
-277 83 -495 44 -495 -89 -983 -559 -1197 -1154 -13 -36 -38 -111 -55 -168
-22 -72 -38 -107 -53 -117 -27 -17 -174 -35 -284 -35 -77 0 -82 1 -105 29 -45
53 -53 85 -38 160 56 287 272 670 596 1056 339 405 693 614 1169 690 128 21
419 13 540 -13z m-6025 -4732 c494 -20 856 -125 1200 -348 320 -207 491 -460
561 -832 19 -102 21 -138 16 -335 -7 -331 -55 -542 -178 -787 -86 -173 -162
-280 -299 -422 -371 -385 -956 -650 -1770 -799 -507 -93 -1096 -139 -1955
-152 -383 -6 -503 -11 -524 -25 -7 -4 -27 -94 -46 -201 -18 -107 -47 -270 -64
-364 -73 -413 -110 -708 -118 -960 -19 -594 146 -1099 455 -1397 148 -142 299
-229 502 -287 143 -41 193 -49 393 -62 148 -11 198 -10 358 5 758 68 1542 361
2120 792 236 177 405 329 633 574 106 114 179 184 208 200 l45 23 49 -23 c56
-28 205 -167 269 -252 81 -108 82 -156 5 -270 -104 -155 -504 -516 -822 -741
-547 -387 -948 -581 -1573 -761 -227 -65 -528 -121 -825 -153 -234 -25 -715
-25 -895 0 -639 89 -1095 303 -1481 699 -412 422 -703 989 -824 1608 -49 250
-63 419 -63 725 0 598 87 1087 289 1625 182 487 453 941 771 1295 396 439 923
830 1530 1133 438 220 740 329 1203 436 125 28 401 60 565 64 22 1 141 -3 265
-8z"/>
<path d="M4925 8794 c-16 -2 -73 -9 -125 -15 -125 -14 -358 -71 -488 -120
-209 -78 -457 -217 -652 -363 -413 -310 -929 -1075 -1074 -1591 -55 -197 -85
-319 -80 -325 10 -9 885 -2 1094 9 847 47 1418 158 1825 356 453 219 719 531
804 943 53 254 7 496 -135 708 -146 221 -387 349 -731 389 -114 13 -356 18
-438 9z"/>
</g>
</svg>
